<svg xmlns="http://www.w3.org/2000/svg" width="94.126" height="24.376" viewBox="0 0 94.126 24.376"><defs><style>.a{fill:#005398;}.b{fill:#fff;}.c{fill:#161615;}</style></defs><path class="a" d="M37.228,350.027c6.663.032,12.746-5.433,12.746-12.082,0-7.27-6.082-12.3-12.746-12.294H31.494A12.024,12.024,0,0,0,19.2,337.945a12.213,12.213,0,0,0,12.294,12.082Z" transform="translate(-19.2 -325.651)"></path><path class="b" d="M36.8,346.8v-13.2a7.068,7.068,0,0,1,0,13.2m-9.6-6.6a7.084,7.084,0,0,1,4.54-6.6v13.2a7.08,7.08,0,0,1-4.54-6.6m7.072-11.159a11.158,11.158,0,1,0,11.158,11.159,11.16,11.16,0,0,0-11.158-11.159" transform="translate(-21.946 -328.027)"></path><path class="c" d="M134.869,359.175c0,.986.706,1.1,1.334,1.1,2.77,0,3.679-2.089,3.679-4a3.852,3.852,0,0,0-4.012-4.127c-.526,0-.769.037-1,.051Zm-1.257-6.014c0-1.153-.6-1.077-1.178-1.089v-.333c.5.024,1.012.024,1.513.024.538,0,1.269-.024,2.218-.024,3.32,0,5.127,2.216,5.127,4.487,0,1.27-.743,4.461-5.282,4.461-.653,0-1.257-.026-1.859-.026-.576,0-1.141.013-1.717.026v-.333c.768-.077,1.141-.1,1.178-.975Z" transform="translate(-98.719 -343.971)"></path><path class="c" d="M165.067,352.519a.629.629,0,0,1,0-1.258.628.628,0,0,1,.628.617.641.641,0,0,1-.628.641m-1.372,7.5h.243c.358,0,.615,0,.615-.424v-3.474c0-.564-.192-.642-.667-.9v-.205c.6-.181,1.321-.423,1.372-.462a.456.456,0,0,1,.231-.065c.063,0,.09.077.09.18v4.921c0,.424.282.424.641.424h.217v.333c-.436,0-.885-.026-1.345-.026s-.924.013-1.4.026Z" transform="translate(-120.671 -343.636)"></path><path class="c" d="M175,363.818c0-.474-.141-.6-.743-.845v-.244a17.144,17.144,0,0,0,1.692-.616c.039,0,.076.026.076.128v.834a3.761,3.761,0,0,1,2.22-.962c1.089,0,1.474.8,1.474,1.8v3.307c0,.424.282.424.641.424h.231v.333c-.45,0-.9-.026-1.359-.026s-.924.013-1.385.026v-.333h.231c.359,0,.614,0,.614-.424V363.9c0-.732-.447-1.09-1.178-1.09a3.427,3.427,0,0,0-1.489.615v3.794c0,.424.283.424.643.424h.23v.333c-.448,0-.9-.026-1.36-.026s-.923.013-1.384.026v-.333h.232c.359,0,.615,0,.615-.424Z" transform="translate(-128.018 -351.257)"></path><path class="c" d="M198.9,364.024c.321,0,.358-.167.358-.32a1.087,1.087,0,0,0-1.115-1.179c-.782,0-1.321.576-1.474,1.5Zm-2.269.411a3.093,3.093,0,0,0,0,.744,2.141,2.141,0,0,0,1.883,2.218,2.456,2.456,0,0,0,1.732-.859l.179.18a3.007,3.007,0,0,1-2.371,1.449c-2.039,0-2.449-1.975-2.449-2.8,0-2.513,1.692-3.256,2.589-3.256a2.035,2.035,0,0,1,2.167,2.012,1.58,1.58,0,0,1-.011.231l-.116.077Z" transform="translate(-143.077 -351.257)"></path><path class="c" d="M212.564,367.64h.347c.358,0,.614,0,.614-.424v-3.6c0-.4-.474-.474-.667-.577v-.191c.936-.4,1.449-.732,1.566-.732.075,0,.113.038.113.167v1.153h.027c.319-.5.858-1.321,1.64-1.321a.7.7,0,0,1,.73.679.622.622,0,0,1-.6.655c-.4,0-.4-.308-.847-.308a1.082,1.082,0,0,0-.936,1.064v3.011c0,.424.256.424.615.424h.718v.333c-.7-.013-1.241-.026-1.793-.026-.526,0-1.064.013-1.526.026Z" transform="translate(-154.989 -351.257)"></path><path class="c" d="M228.6,366.191a1.689,1.689,0,0,0,1.616,1.564.905.905,0,0,0,1.037-.91c0-1.513-2.794-1.026-2.794-3.09a1.762,1.762,0,0,1,1.987-1.642,3.375,3.375,0,0,1,1.461.372l.09,1.307H231.7a1.316,1.316,0,0,0-1.4-1.269.9.9,0,0,0-1,.846c0,1.5,2.975,1.038,2.975,3.051,0,.846-.679,1.744-2.205,1.744a3.379,3.379,0,0,1-1.564-.436l-.141-1.475Z" transform="translate(-166.086 -351.257)"></path><path class="c" d="M261.482,353.6h-.319a2.439,2.439,0,0,0-2.744-2.1c-1.475,0-3.617.987-3.617,4.063a4.178,4.178,0,0,0,3.821,4.449,2.607,2.607,0,0,0,2.578-2.219l.294.077-.294,1.871a7.184,7.184,0,0,1-2.834.681,4.563,4.563,0,0,1-4.9-4.821,4.713,4.713,0,0,1,4.858-4.513,9.239,9.239,0,0,1,3.025.681Z" transform="translate(-183.716 -343.516)"></path><path class="c" d="M281.929,358.357h.242c.36,0,.617,0,.617-.424v-7.139c0-.834-.192-.86-.679-1v-.205a8.143,8.143,0,0,0,1.32-.552,1.327,1.327,0,0,1,.281-.141c.077,0,.1.077.1.18v8.858c0,.424.282.424.641.424h.217v.333c-.434,0-.884-.026-1.345-.026s-.923.013-1.4.026Z" transform="translate(-203.701 -341.975)"></path><path class="c" d="M296.632,367.723c0,.232.141.244.358.244.154,0,.346-.012.514-.012v.27a12.882,12.882,0,0,0-1.847.4l-.065-.039v-1.038a3.456,3.456,0,0,1-2.27,1.077,1.382,1.382,0,0,1-1.41-1.525v-3.283c0-.333-.051-.654-.768-.718v-.244c.462-.012,1.486-.089,1.653-.089.142,0,.142.089.142.372v3.306c0,.385,0,1.488,1.115,1.488a2.86,2.86,0,0,0,1.55-.781V363.7c0-.256-.615-.4-1.075-.525v-.231c1.152-.077,1.872-.179,2-.179.1,0,.1.089.1.231Z" transform="translate(-210.173 -351.713)"></path><path class="c" d="M314.118,357.242a1.38,1.38,0,0,0,1.321,1.309c1.372,0,1.948-1.347,1.948-2.488a2.445,2.445,0,0,0-2.051-2.538,1.975,1.975,0,0,0-1.218.6Zm0-3.487a3.243,3.243,0,0,1,1.91-.923,2.5,2.5,0,0,1,2.384,2.693,3.238,3.238,0,0,1-3.065,3.359,3.791,3.791,0,0,1-1.782-.448l-.384.294-.269-.14a15.116,15.116,0,0,0,.179-2.282v-5.512c0-.834-.193-.86-.68-1v-.205a8.1,8.1,0,0,0,1.321-.552,1.29,1.29,0,0,1,.283-.141c.077,0,.1.077.1.18Z" transform="translate(-225.108 -341.975)"></path><path class="c" d="M330.462,357.874h.1c.107,0,.157-.081.157-.211s-.077-.178-.162-.178h-.093Zm-.279.436v-.041c.1-.014.121-.011.121-.074v-.612c0-.086-.01-.115-.117-.111v-.042h.423c.145,0,.279.069.279.219a.26.26,0,0,1-.2.25l.135.189a.836.836,0,0,0,.183.195v.027h-.162c-.077,0-.145-.163-.3-.381h-.092v.275c0,.055.019.051.121.065v.041Zm.411.234a.672.672,0,1,0-.655-.67.666.666,0,0,0,.655.67m0-1.5a.827.827,0,1,1-.827.829.813.813,0,0,1,.827-.829" transform="translate(-237.296 -347.698)"></path></svg>