<svg xmlns="http://www.w3.org/2000/svg" width="58.582" height="18.963" viewBox="0 0 58.582 18.963"><defs><style>.a{fill:#0023a0;}.b{fill:#ffab00;}</style></defs><path class="a" d="M57.98.983c-4.693,0-7.989,2.495-8.018,6.062-.03,2.643,2.357,4.116,4.153,4.994,1.852.9,2.471,1.475,2.465,2.278-.018,1.231-1.482,1.792-2.842,1.792a9.508,9.508,0,0,1-4.461-.96l-.616-.293L48,18.968a14.369,14.369,0,0,0,5.288.978c4.98,0,8.22-2.466,8.258-6.274.02-2.1-1.247-3.682-3.987-4.992C55.9,7.829,54.88,7.264,54.9,6.4c0-.762.858-1.579,2.718-1.579a8.292,8.292,0,0,1,3.55.706l.423.211.645-3.983A11.722,11.722,0,0,0,57.98.983ZM43.249,1.3,40.281,19.674h4.742L47.993,1.3H43.25ZM36.3,1.321l-4.643,12.52-.5-2.544c-1.156-3.12-3.66-6.392-6.575-7.718l4.248,16.077,5.021,0L41.325,1.322H36.3Zm34.431,0a2.349,2.349,0,0,0-2.489,1.525L61.2,19.68h4.982s.815-2.266,1-2.762c.544,0,5.383.01,6.073.01.147.641.578,2.751.578,2.751h4.405L74.4,1.323H70.734Zm.335,4.953.316,1.584s.912,4.383,1.1,5.3H68.548c.394-1.054,1.89-5.135,1.89-5.135-.029.05.389-1.063.63-1.75Z" transform="translate(-19.657 -0.983)"></path><path class="b" d="M8.712,2.554H1.062l-.045.316c5.948,1.521,9.873,5.257,11.507,9.674L10.861,4.1A1.99,1.99,0,0,0,8.712,2.554" transform="translate(-1.017 -2.225)"></path></svg>