<svg xmlns="http://www.w3.org/2000/svg" width="55.5" height="24.159" viewBox="0 0 55.5 24.159"><path d="M182.526,186.9h-5.752c-2.542.12-4.619,1.144-5.219,3.255-.313,1.1-.485,2.31-.729,3.451-1.244,5.8-2.346,11.766-3.535,17.453h44.782c3.462,0,5.839-.732,6.482-3.479.3-1.276.584-2.722.87-4.125,1.113-5.468,2.227-10.935,3.367-16.555Z" transform="translate(-167.29 -186.903)" fill="#9c0316" fill-rule="evenodd"></path><path d="M222.008,254.238c.241-.166.55-.92.2-1.235a.668.668,0,0,0-.561-.084.679.679,0,0,0-.477.253c-.152.208-.292.834-.056,1.066S221.855,254.343,222.008,254.238ZM218.585,253c-.172,1.118-.366,2.215-.561,3.311-1.25.013-2.526.062-3.732-.028.228-1.072.391-2.209.617-3.283h-1.347c-.482,2.735-.921,5.514-1.459,8.193h1.375c.216-1.374.417-2.763.7-4.069a33.53,33.53,0,0,1,3.7.028c-.232,1.358-.513,2.667-.73,4.04h1.375c.442-2.776.907-5.528,1.459-8.193Zm19.445,2.357a1.852,1.852,0,0,0-2.3.982c.088-.3.125-.661.2-.982h-1.066c-.261,2.022-.645,3.919-1.01,5.836h1.207a22.942,22.942,0,0,1,.617-3.76,1.683,1.683,0,0,1,2.217-1.207C237.905,255.909,238,255.664,238.029,255.36Zm.673,4.461a2.935,2.935,0,0,1-.112-1.122,3.925,3.925,0,0,1,.814-2.245c.629-.617,1.871-.515,2.862-.168.031-.334.1-.632.14-.954-1.625-.265-3.167-.1-3.984.758a4.791,4.791,0,0,0-.954,3.984c.434,1.421,2.38,1.5,3.956.954.07-.286.107-.6.168-.9C240.732,260.578,239.085,260.81,238.7,259.822Zm13.552-4.433a1.843,1.843,0,0,0-2.3.9c.1-.275.1-.644.2-.926h-1.066q-.431,3.006-1.038,5.836h1.235a13.193,13.193,0,0,1,.281-2.1c.258-1.62.637-3.4,2.525-2.862C252.15,255.956,252.176,255.645,252.255,255.388Zm-31.482-.028c-.033,0-.03.044-.028.084-.266,1.988-.626,3.882-1.01,5.752h1.207c.29-2,.622-3.961,1.038-5.836Zm10.606-.112a3.15,3.15,0,0,0-2.133.87,4.875,4.875,0,0,0-1.01,3.535c.217,1.944,2.638,1.874,4.574,1.4.033-.341.115-.633.168-.954-.8.3-2.182.715-3,.2-.619-.392-.623-1.383-.421-2.245,1.3-.041,2.653-.033,3.956,0a4.151,4.151,0,0,0,.112-1.88C233.351,255.378,232.374,255.171,231.379,255.248Zm1.15,2.132H229.7a1.672,1.672,0,0,1,1.6-1.4C232.164,255.944,232.787,256.3,232.53,257.38Zm-5.724-2.02a3.185,3.185,0,0,0-2.805.51c0,.019-.013.022-.029.023l.029-.023v0c.009-.187.075-.318.084-.505h-1.038c-.433,2.878-.946,5.676-1.487,8.446h1.207c.175-1.079.29-2.217.533-3.227.276,1.062,2.075.859,2.834.449C227.7,260.181,228.907,256.15,226.806,255.36Zm-.954,4.742c-.645.684-2.232.673-2.357-.477a5.717,5.717,0,0,1,.225-1.543c.093-.524.16-1.027.252-1.487.636-.776,2.5-.87,2.694.421A4.28,4.28,0,0,1,225.852,260.1Zm30.893-7.267c-.1.907-.242,1.779-.421,2.609-2.96-.937-4.775,1.241-4.742,3.928a2.113,2.113,0,0,0,.421,1.4,2.729,2.729,0,0,0,2.974.253,2.1,2.1,0,0,0,.421-.421c.078-.1.2-.354.224-.281a6.256,6.256,0,0,0-.112.87H256.6a76.427,76.427,0,0,1,1.347-8.361Zm-2.694,7.716c-.812.017-1.216-.485-1.235-1.319-.032-1.46.608-3.081,1.908-3.227a3.164,3.164,0,0,1,1.487.224C255.8,257.87,255.951,260.51,254.051,260.551Zm-10.41-5.191c-.059.333-.151.635-.224.954.712-.179,2.929-.726,3.143.224a1.661,1.661,0,0,1-.14.9c-2-.19-3.639.143-4.069,1.571a1.773,1.773,0,0,0,.645,2.161,2.683,2.683,0,0,0,3.115-.87,3.66,3.66,0,0,0-.084.9h1.038a16.1,16.1,0,0,1,.309-2.694,10.652,10.652,0,0,0,.337-2.189C247.62,254.774,245.069,255.319,243.641,255.36Zm1.964,4.714c-.622.609-2.367.782-2.189-.673.148-1.208,1.464-1.465,2.89-1.291A3.59,3.59,0,0,1,245.605,260.074Z" transform="translate(-207.221 -245.652)" fill="#fff" fill-rule="evenodd"></path></svg>